<svg width="45" height="45" viewBox="0 0 45 45" fill="none" xmlns="http://www.w3.org/2000/svg">
<path d="M4.04494 38.0882C1.51685 35.1765 0 32 0 26.7059C0 17.4412 6.32023 9.23529 15.1685 5L17.4438 8.44118C9.10112 13.2059 7.33146 19.2941 6.82584 23.2647C8.08989 22.4706 9.85955 22.2059 11.6292 22.4706C16.1798 23 19.7191 26.7059 19.7191 31.7353C19.7191 34.1176 18.7079 36.5 17.191 38.3529C15.4213 40.2059 13.3989 41 10.8708 41C8.08989 41 5.5618 39.6765 4.04494 38.0882ZM29.3258 38.0882C26.7978 35.1765 25.2809 32 25.2809 26.7059C25.2809 17.4412 31.6011 9.23529 40.4494 5L42.7247 8.44118C34.382 13.2059 32.6124 19.2941 32.1067 23.2647C33.3708 22.4706 35.1405 22.2059 36.9101 22.4706C41.4607 23 45 26.7059 45 31.7353C45 34.1176 43.9888 36.5 42.4719 38.3529C40.9551 40.2059 38.6798 41 36.1517 41C33.3708 41 30.8427 39.6765 29.3258 38.0882Z" fill="#153A2B"/>
</svg>
